<svg id="Layer_1" data-name="Layer 1" xmlns="http://www.w3.org/2000/svg" viewBox="0 0 1559 751"><defs><style>.cls-1{fill:#2e4249;}.cls-2{fill:#3a3646;}.cls-3{opacity:0.99;}.cls-4{fill:#432f44;}</style></defs><path class="cls-1" d="M1298,949.5a373.32,373.32,0,1,1,145.77-29.43A372.1,372.1,0,0,1,1298,949.5Z" transform="translate(-114 -200)"/><path d="M1298,201a372.83,372.83,0,1,1-145.58,29.39A371.71,371.71,0,0,1,1298,201m0-1c-207.11,0-375,167.89-375,375s167.89,375,375,375,375-167.89,375-375-167.89-375-375-375Z" transform="translate(-114 -200)"/><circle class="cls-2" cx="221.33" cy="414.33" r="150.83"/><path d="M335.33,464A150.33,150.33,0,1,1,229,508a149.35,149.35,0,0,1,106.29-44m0-1A151.33,151.33,0,1,0,486.66,614.33,151.32,151.32,0,0,0,335.33,463Z" transform="translate(-114 -200)"/><g class="cls-3"><circle class="cls-4" cx="265.33" cy="799.67" r="150.83" transform="translate(-601.74 221.83) rotate(-45)"/><path d="M265.33,649.35a150.33,150.33,0,1,1-106.3,44,149.34,149.34,0,0,1,106.3-44m0-1A151.33,151.33,0,1,0,416.65,799.67,151.32,151.32,0,0,0,265.33,648.35Z" transform="translate(-114 -200)"/></g></svg>